# xmcd CD database file
#
# Track frame offsets:
#	150
#	28148
#	57403
#	86845
#	116401
#	140711
#	178001
#	201772
#
# Disc length: 2948 seconds
#
# Revision: 4
# Processed by: cddbd v1.5.2PL0 Copyright (c) Steve Scherf et al.
# Submitted via: CDex 1.70beta2
#
DISCID=740b8208
DTITLE=蛇池雅人 - Jaike Masato And His Quartet - Jaike Masato And His Quartet - Jaike Masato And His Quartet - スローライフ - Slow Life
DYEAR=2006
DGENRE=Jazz
TTITLE0=ビリンバウ - Berimbau
TTITLE1=オレンジ色のドレス - Orange Was The Color Of Her Dress, Then Blue Silk
TTITLE2=エコー - Echo
TTITLE3=忘却 - Oblivion
TTITLE4=トゥー・スネイクス・アンド・モア - Two Snakes And More
TTITLE5=ハレルヤ - The Lord Is Listenin' To Ya, Hallelujah!
TTITLE6=マラカトゥ - Maracatu
TTITLE7=スローライフ - Slow Life
EXTD=YEAR: 2006
EXTT0=
EXTT1=
EXTT2=
EXTT3=
EXTT4=
EXTT5=
EXTT6=
EXTT7=
PLAYORDER=
